<?xml version="1.0" encoding="UTF-8" standalone="no"?>
<svg width="86px" height="86px" viewBox="0 0 86 86" version="1.1" xmlns="http://www.w3.org/2000/svg" xmlns:xlink="http://www.w3.org/1999/xlink" xmlns:sketch="http://www.bohemiancoding.com/sketch/ns">
    <!-- Generator: Sketch 3.3.2 (12043) - http://www.bohemiancoding.com/sketch -->
    <title>Shape</title>
    <desc>Created with Sketch.</desc>
    <defs></defs>
    <g id="Page-1" stroke="none" stroke-width="1" fill="none" fill-rule="evenodd" sketch:type="MSPage">
        <path d="M43,0 C19.2902195,0 0,19.2902195 0,43 C0,66.7097805 19.2902195,86 43,86 C66.7097805,86 86,66.7097805 86,43 C86,19.2902195 66.7097805,0 43,0 L43,0 Z M69.2195122,44.0487805 L44.0487805,44.0487805 L44.0487805,69.2195122 C44.0487805,69.7994878 43.5789268,70.2682927 43,70.2682927 C42.4210732,70.2682927 41.9512195,69.7994878 41.9512195,69.2195122 L41.9512195,44.0487805 L16.7804878,44.0487805 C16.201561,44.0487805 15.7317073,43.5799756 15.7317073,43 C15.7317073,42.4200244 16.201561,41.9512195 16.7804878,41.9512195 L41.9512195,41.9512195 L41.9512195,16.7804878 C41.9512195,16.2005122 42.4210732,15.7317073 43,15.7317073 C43.5789268,15.7317073 44.0487805,16.2005122 44.0487805,16.7804878 L44.0487805,41.9512195 L69.2195122,41.9512195 C69.798439,41.9512195 70.2682927,42.4200244 70.2682927,43 C70.2682927,43.5799756 69.798439,44.0487805 69.2195122,44.0487805 L69.2195122,44.0487805 Z" id="Shape" fill="#009CB1" sketch:type="MSShapeGroup"></path>
    </g>
</svg>