<?xml version="1.0" encoding="UTF-8" standalone="no"?>
<svg width="66px" height="71px" viewBox="0 0 66 71" version="1.1" xmlns="http://www.w3.org/2000/svg" xmlns:xlink="http://www.w3.org/1999/xlink" xmlns:sketch="http://www.bohemiancoding.com/sketch/ns">
    <!-- Generator: Sketch 3.3.2 (12043) - http://www.bohemiancoding.com/sketch -->
    <title>Group Copy</title>
    <desc>Created with Sketch.</desc>
    <defs></defs>
    <g id="Page-1" stroke="none" stroke-width="1" fill="none" fill-rule="evenodd" sketch:type="MSPage">
        <g id="Group-Copy" sketch:type="MSLayerGroup" fill="#E52E62">
            <path d="M28.242,28.096 L5.65,5.502 L0.004,11.151 L22.596,33.743 L28.244,33.746 L28.242,28.096 Z" id="Shape" sketch:type="MSShapeGroup"></path>
            <rect id="Rectangle-path" sketch:type="MSShapeGroup" x="32.004" y="27.169" width="18" height="5"></rect>
            <rect id="Rectangle-path" sketch:type="MSShapeGroup" x="22.004" y="38.836" width="28" height="5"></rect>
            <rect id="Rectangle-path" sketch:type="MSShapeGroup" x="32.004" y="15.503" width="18" height="5"></rect>
            <rect id="Rectangle-path" sketch:type="MSShapeGroup" x="22.004" y="50.503" width="28" height="5"></rect>
            <path d="M53.539,0.503 L12.504,0.503 L18.004,5.503 L50.004,5.503 L50.004,15.503 L60.004,15.503 L60.004,65.503 L12.504,65.503 L12.504,35.503 L7.504,30.503 L7.504,70.503 L65.004,70.503 L65.004,11.967 L53.539,0.503 L53.539,0.503 Z M55.004,10.502 L55.004,9.037 L56.469,10.502 L55.004,10.502 L55.004,10.502 Z" id="Shape" sketch:type="MSShapeGroup"></path>
        </g>
    </g>
</svg>