<?xml version="1.0" encoding="UTF-8" standalone="no"?>
<svg width="86px" height="86px" viewBox="0 0 86 86" version="1.1" xmlns="http://www.w3.org/2000/svg" xmlns:xlink="http://www.w3.org/1999/xlink" xmlns:sketch="http://www.bohemiancoding.com/sketch/ns">
    <!-- Generator: Sketch 3.3.2 (12043) - http://www.bohemiancoding.com/sketch -->
    <title>noun_53504 copy</title>
    <desc>Created with Sketch.</desc>
    <defs></defs>
    <g id="Page-1" stroke="none" stroke-width="1" fill="none" fill-rule="evenodd" sketch:type="MSPage">
        <g id="noun_53504-copy" sketch:type="MSLayerGroup">
            <path d="M40.469985,41.7485792 C46.894899,36.4990528 59.744727,26 59.744727,26 L63,29.9733251 L29.014268,57.7788462 L23,59.2234801 L25.8140509,53.7233251 C25.8140509,53.7233251 35.5846736,45.7401611 40.469985,41.7485792 Z" id="Shape-Copy" stroke="#FFFFFF" stroke-width="3" sketch:type="MSShapeGroup"></path>
            <g id="Group" fill="#FFFFFF" sketch:type="MSShapeGroup">
                <path d="M43,4.229 C64.378,4.229 81.771,21.622 81.771,43 C81.771,64.378 64.378,81.771 43,81.771 C21.622,81.771 4.229,64.378 4.229,43 C4.229,21.622 21.622,4.229 43,4.229 L43,4.229 Z M43,0.229 C19.378,0.229 0.229,19.378 0.229,43 C0.229,66.622 19.378,85.771 43,85.771 C66.622,85.771 85.771,66.622 85.771,43 C85.771,19.378 66.622,0.229 43,0.229 L43,0.229 L43,0.229 Z" id="Shape"></path>
            </g>
        </g>
    </g>
</svg>